<svg width="184" height="184" viewBox="0 0 184 184" fill="none" xmlns="http://www.w3.org/2000/svg">
<circle cx="92" cy="92" r="92" fill="#62CFF4"/>
<path d="M59.6186 52.0505C59.5038 52.3757 59.471 52.4177 59.4819 52.4492C60.4163 55.7537 60.2142 56.1314 56.8318 57.3692C53.6843 58.5232 50.5423 59.6824 47.3894 60.8259C46.466 61.1616 45.9687 61.7386 46.231 62.7089C46.4605 63.5482 47.3512 63.8629 48.4167 63.48C51.821 62.2421 55.2143 60.9832 58.6131 59.7349C61.0994 58.8222 62.154 59.268 63.0993 61.6389C63.9845 63.8577 64.8752 66.0764 65.7495 68.3057C66.4872 70.1887 65.9353 71.3689 63.9736 72.098C60.5092 73.3831 57.0339 74.6472 53.5641 75.9271C52.362 76.3729 51.9357 77.0496 52.2691 77.915C52.586 78.7438 53.4384 78.9903 54.6187 78.5602C57.9465 77.3433 61.2742 76.1211 64.5965 74.8937C67.1265 73.9601 68.0773 74.343 69.11 76.7296C69.1811 76.8974 69.274 77.06 69.4324 77.3748C72.3121 76.2313 75.2519 75.2662 77.9895 73.9234C81.3938 72.2554 83.4702 69.4072 84.5522 65.8928C84.6177 65.6778 84.6505 65.4575 84.727 65.2477C85.2079 63.8209 86.4483 63.1181 87.869 63.4538C89.2351 63.779 90.0329 65.0588 89.6777 66.5013C88.9345 69.5226 87.492 72.2082 85.3336 74.5318C83.2298 76.7978 80.678 78.4396 77.7327 79.5253C75.6344 80.2964 73.5361 81.057 71.4378 81.828C68.2522 82.9925 67.0063 82.6777 64.826 80.1023C62.2196 81.0569 59.5803 82.0168 56.952 82.9925C55.5313 83.517 54.1105 83.9314 52.5423 83.6429C49.6462 83.1079 47.4386 80.9363 47.1326 78.2402C46.7938 75.2399 48.3238 72.654 51.209 71.5368C53.9739 70.4667 56.7716 69.4806 59.553 68.4525C59.7333 68.3896 59.9082 68.3162 60.2196 68.1955C59.7879 67.1097 59.3727 66.0607 58.9191 64.9172C55.9411 66.0082 53.0559 67.073 50.1653 68.1273C47.6681 69.0348 45.3349 68.72 43.3131 67.0415C39.5099 63.8944 40.5591 58.1875 45.2693 56.3622C48.1708 55.2344 51.1161 54.2063 54.1051 53.1153C54.0723 52.7954 54.0395 52.5121 54.0176 52.2236C53.8974 50.5084 54.4821 48.9453 56.1269 48.3264C60.1158 46.8262 64.1102 45.1163 68.2685 44.319C75.8803 42.8608 83.4648 46.5168 87.4483 52.9422C87.8526 53.5979 88.2023 53.8129 89.0602 53.6975C104.929 51.6047 118.611 55.9111 129.726 67.0258C145.796 83.0974 146.381 108.983 131.075 125.736C120.835 136.951 107.803 141.991 92.3333 140.895C72.0608 139.463 54.7881 124.304 51.3183 105.065C50.8757 102.62 50.7391 100.118 50.5587 97.6373C50.4276 95.8382 51.3838 94.7471 52.9357 94.679C54.5695 94.6055 55.6241 95.6126 55.6515 97.4747C55.7389 103.801 57.2088 109.806 60.3999 115.34C67.1757 127.09 77.4923 134.171 91.4153 135.797C112.639 138.273 131.829 124.944 136.212 105.017C140.753 84.3615 126.862 63.6269 105.371 59.0163C99.3113 57.7154 93.2349 57.6158 87.1805 59.1264C85.8308 59.4621 84.6615 58.8169 84.0604 57.4374C81.9949 52.6852 78.2846 49.8895 73.017 49.0869C71.6291 48.8771 70.0882 48.8247 68.7549 49.1761C65.602 49.9996 62.531 51.1116 59.6186 52.0453V52.0505Z" fill="white"/>
<path d="M116.787 82.7951C111.34 88.1435 104.819 91.9281 98.7913 96.3278C95.8127 98.5016 93.4636 101.244 92.0855 104.648C90.4145 108.781 91.3531 112.926 94.6029 115.668C94.7548 115.376 94.9121 115.11 95.0423 114.834C98.3084 107.838 103.267 102.13 109.441 97.3443C109.68 97.1567 109.93 96.9794 110.185 96.8178C111.384 96.0776 112.767 96.2652 113.608 97.2661C114.481 98.3035 114.368 99.711 113.272 100.649C112.121 101.635 110.884 102.521 109.767 103.537C104.944 107.906 101.048 112.894 98.7967 118.947C97.755 121.746 97.1908 124.644 97.1094 127.621C97.0552 129.571 96.1274 130.613 94.4835 130.571C92.8776 130.53 91.9607 129.404 92.0367 127.459C92.0909 126.068 92.2483 124.676 92.3676 123.221C92.015 123.221 91.6732 123.2 91.3422 123.221C84.3923 123.748 78.7119 121.298 74.0678 116.418C68.8052 110.882 66.2227 104.324 65.9786 96.8752C65.9352 95.5928 66.6947 94.5919 68.0619 94.3208C72.8254 93.3773 77.6052 93.2209 82.3741 94.2739C83.9203 94.6128 84.7667 95.7961 84.5008 97.0993C84.2133 98.512 83.0414 99.1793 81.3867 99.0594C78.56 98.8509 75.7226 98.7205 72.8905 98.5902C72.3697 98.5641 71.838 98.6997 71.1381 98.7831C71.404 100.133 71.5721 101.41 71.9085 102.646C73.4113 108.166 76.4604 112.717 81.327 116.048C83.8389 117.763 87.1755 118.592 89.8882 118.332C89.8394 118.191 89.834 118.04 89.7526 117.946C85 112.576 85.2441 105.612 88.8954 99.7579C91.4887 95.6032 95.1509 92.4963 99.3121 89.8638C104.271 86.7204 108.986 83.2851 113.266 79.3128C113.847 78.7759 114.384 78.1921 114.932 77.6186C116.19 76.305 117.867 76.2581 119.028 77.6186C126.206 86.0323 128.37 95.4885 124.877 105.867C121.985 114.448 115.919 120.37 107.222 123.774C105.497 124.451 104.054 123.951 103.484 122.523C102.936 121.157 103.636 119.911 105.329 119.239C115.838 115.053 121.817 106.144 121.323 95.2539C121.122 90.7552 119.549 86.6683 116.782 82.8107L116.787 82.7951Z" fill="white"/>
</svg>
