<svg width="184" height="184" viewBox="0 0 184 184" fill="none" xmlns="http://www.w3.org/2000/svg">
<circle cx="92" cy="92" r="92" fill="#C7E22B"/>
<path d="M95.0979 51.677C95.7761 52.0536 96.5254 52.3415 97.127 52.8178C98.4013 53.8256 98.9482 55.2211 98.899 56.8547C98.888 57.2645 98.899 57.6743 98.899 58.2059C99.342 58.2059 99.7084 58.2059 100.075 58.2059C111.965 58.2059 123.855 58.2059 135.744 58.2059C138.184 58.2059 140.076 59.5737 140.694 61.7389C141.514 64.6351 139.66 67.5368 136.712 67.9687C136.526 67.9964 136.346 68.0241 136.034 68.0739V69.2977C136.034 87.1511 136.04 105.004 136.018 122.858C136.018 123.866 135.941 124.929 135.608 125.859C134.716 128.351 132.884 129.774 130.264 130.095C129.701 130.162 129.132 130.167 128.563 130.167C117.527 130.167 106.49 130.167 95.448 130.167H94.1682C94.1299 130.477 94.0752 130.721 94.0752 130.965C94.0643 131.989 94.119 133.014 94.0588 134.033C93.9658 135.711 94.0315 136.973 95.973 137.915C98.6091 139.194 99.506 142.588 98.538 145.401C97.57 148.22 94.8573 150.02 91.9204 149.787C88.9835 149.555 86.5661 147.284 86.063 144.283C85.5762 141.398 87.1458 138.457 89.8968 137.3C90.6297 136.99 90.8703 136.624 90.8484 135.838C90.7937 133.994 90.832 132.15 90.832 130.167C90.3343 130.167 89.9406 130.167 89.5413 130.167C78.3788 130.167 67.2109 130.162 56.0485 130.173C54.1561 130.173 52.417 129.796 50.9895 128.451C49.6824 127.221 48.9495 125.715 48.8894 123.899C48.873 123.423 48.873 122.941 48.873 122.465C48.873 104.772 48.873 87.0791 48.873 69.3863V68.1072C48.4136 68.013 48.0198 67.9576 47.6315 67.8524C45.6298 67.3097 44.5578 65.8644 44 63.9429V62.2206C45.3618 58.9701 46.5049 58.2114 50.0379 58.2114C61.6379 58.2114 73.2324 58.2114 84.8324 58.2114H86.0028C86.0028 57.6133 86.0028 57.1371 86.0028 56.6664C86.0083 54.7891 86.8122 53.3549 88.3819 52.3747C88.8249 52.0979 89.328 51.9096 89.7984 51.6825C91.5649 51.6825 93.3314 51.6825 95.0979 51.6825V51.677ZM132.797 68.085H52.0998C52.0998 68.5003 52.0998 68.8492 52.0998 69.1981C52.0998 87.1178 52.0998 105.032 52.0998 122.952C52.0998 123.301 52.0943 123.655 52.1271 124.004C52.2584 125.438 53.385 126.634 54.796 126.823C55.2937 126.889 55.8023 126.889 56.3055 126.889C80.4024 126.889 104.499 126.889 128.591 126.889C129.094 126.889 129.603 126.889 130.1 126.823C131.511 126.634 132.632 125.438 132.769 124.004C132.797 123.688 132.797 123.367 132.797 123.046C132.797 105.065 132.797 87.0846 132.797 69.1039C132.797 68.7883 132.797 68.4726 132.797 68.0905V68.085ZM92.4509 64.7458C106.671 64.7458 120.89 64.7458 135.11 64.7458C135.455 64.7458 135.805 64.7569 136.149 64.7292C137.008 64.6461 137.626 63.9927 137.648 63.1676C137.67 62.3923 137.123 61.6946 136.324 61.534C136.018 61.4731 135.695 61.4841 135.383 61.4841C106.753 61.4841 78.1218 61.4841 49.491 61.4841C49.1793 61.4841 48.8566 61.4731 48.5503 61.534C47.7518 61.7001 47.2104 62.4034 47.2322 63.1787C47.2596 64.0038 47.8776 64.6517 48.7417 64.7292C49.0863 64.7624 49.4363 64.7458 49.7809 64.7458C64.0005 64.7458 78.2202 64.7458 92.4399 64.7458H92.4509ZM95.6667 143.264C95.6777 141.436 94.2612 139.991 92.4509 139.991C90.6734 139.991 89.2624 141.381 89.2296 143.164C89.1968 144.975 90.6242 146.481 92.3962 146.514C94.1572 146.548 95.6503 145.064 95.6667 143.264ZM89.2241 58.1283H95.6722C95.6722 57.6632 95.6722 57.2811 95.6722 56.899C95.6558 55.5589 95.0815 54.9664 93.7799 54.9442C92.8337 54.9331 91.8876 54.9221 90.9469 54.9442C89.864 54.9774 89.2733 55.5921 89.2296 56.683C89.2132 57.1537 89.2296 57.6244 89.2296 58.1173L89.2241 58.1283Z" fill="white"/>
<path d="M92.4507 112.192C103.52 112.192 114.59 112.192 125.659 112.192C127.201 112.192 127.973 112.735 127.967 113.815C127.967 114.895 127.174 115.465 125.654 115.465C103.515 115.465 81.3757 115.465 59.2367 115.465C58.925 115.465 58.6023 115.471 58.296 115.415C57.4429 115.249 56.8795 114.529 56.9288 113.721C56.9835 112.896 57.6069 112.281 58.482 112.215C58.8266 112.187 59.1766 112.203 59.5211 112.203C70.4976 112.203 81.4687 112.203 92.4452 112.203L92.4507 112.192Z" fill="white"/>
<path d="M77.9745 118.732C84.1546 118.732 90.3347 118.732 96.5094 118.732C96.8266 118.732 97.1438 118.715 97.4555 118.749C98.2814 118.848 98.779 119.341 98.872 120.166C98.965 120.997 98.5822 121.606 97.7946 121.861C97.4172 121.983 96.9906 121.988 96.5859 121.994C84.1328 121.999 71.6796 121.999 59.2264 121.994C58.849 121.994 58.4607 121.994 58.1052 121.894C57.3068 121.667 56.9185 121.069 56.9403 120.244C56.9567 119.452 57.5912 118.821 58.3951 118.743C58.7069 118.71 59.0241 118.727 59.3413 118.727C65.5542 118.727 71.7616 118.727 77.9745 118.727V118.732Z" fill="white"/>
<path d="M112.593 89.2665C108.12 89.2665 103.64 89.261 99.1666 89.2665C98.2807 89.2665 97.6134 88.9675 97.3673 88.0593C97.1157 87.1179 97.6681 86.2429 98.6252 86.0491C98.9588 85.9827 99.3143 85.9993 99.6589 85.9993C108.295 85.9993 116.93 85.9993 125.572 85.9993C125.763 85.9993 125.949 85.9937 126.14 85.9993C127.245 86.0436 127.972 86.7081 127.967 87.655C127.962 88.6075 127.24 89.261 126.118 89.261C121.612 89.272 117.105 89.261 112.593 89.261V89.2665Z" fill="white"/>
<path d="M112.6 102.357C108.186 102.357 103.773 102.357 99.3644 102.357C98.1011 102.357 97.4502 101.892 97.3409 100.956C97.2315 100.054 97.7401 99.3227 98.637 99.1455C98.9761 99.079 99.3261 99.0846 99.6707 99.0846C108.306 99.0846 116.942 99.0846 125.578 99.0846C127.18 99.0846 127.979 99.6383 127.968 100.74C127.957 101.842 127.191 102.357 125.551 102.357C121.235 102.357 116.915 102.357 112.6 102.357Z" fill="white"/>
<path d="M112.708 105.641C116.996 105.641 121.278 105.641 125.566 105.641C125.943 105.641 126.326 105.636 126.698 105.702C127.486 105.852 127.907 106.411 127.951 107.175C127.994 107.945 127.622 108.526 126.873 108.786C126.665 108.858 126.441 108.903 126.222 108.903C117.176 108.908 108.131 108.914 99.0847 108.903C98.0565 108.903 97.4439 108.349 97.3345 107.502C97.1978 106.427 97.8869 105.669 99.0901 105.647C100.95 105.619 102.809 105.636 104.669 105.636C107.348 105.636 110.028 105.636 112.703 105.636L112.708 105.641Z" fill="white"/>
<path d="M119.047 95.8063C116.745 95.8063 114.448 95.8119 112.145 95.8063C110.909 95.8008 110.231 95.2194 110.226 94.1949C110.226 93.1926 110.931 92.5447 112.129 92.5447C116.761 92.5336 121.394 92.5336 126.026 92.5447C127.218 92.5447 127.956 93.2037 127.962 94.1838C127.962 95.1695 127.235 95.8008 126.037 95.8063C123.707 95.8174 121.372 95.8063 119.042 95.8063H119.047Z" fill="white"/>
<path d="M102.131 95.8009C101.092 95.8009 100.047 95.8231 99.008 95.7954C97.9743 95.7677 97.3508 95.1751 97.3235 94.2448C97.2907 93.2813 97.9251 92.5725 98.9806 92.5503C101.092 92.506 103.208 92.506 105.319 92.5503C106.348 92.5725 107.031 93.3477 106.982 94.2614C106.933 95.153 106.26 95.7677 105.254 95.7954C104.215 95.8175 103.175 95.7954 102.131 95.7954V95.8009Z" fill="white"/>
<path d="M107.015 76.2087C109.06 76.2087 111.111 76.2032 113.157 76.2087C114.349 76.2142 115.044 76.8511 115.027 77.87C115.005 78.8557 114.333 79.4593 113.179 79.4593C109.055 79.4648 104.926 79.4648 100.802 79.4593C99.6425 79.4593 98.8878 78.7726 98.9096 77.7925C98.9315 76.84 99.6589 76.2087 100.78 76.2032C102.858 76.1921 104.937 76.2032 107.015 76.2032V76.2087Z" fill="white"/>
<path d="M86.4287 77.9642C83.284 81.2203 79.5158 83.524 76.0319 86.1986C74.3146 87.5221 72.9528 89.1889 72.1598 91.2656C71.1918 93.7796 71.7387 96.3048 73.6146 97.9716C73.7021 97.7944 73.7896 97.6338 73.8662 97.4622C75.753 93.2037 78.6188 89.7316 82.1847 86.8188C82.3214 86.7081 82.4636 86.5973 82.6167 86.4977C83.3113 86.0491 84.1098 86.1599 84.5966 86.769C85.0997 87.4003 85.0341 88.2586 84.4051 88.829C83.7434 89.4271 83.0269 89.9698 82.3816 90.5844C79.5978 93.2425 77.3445 96.2771 76.0483 99.9652C75.4467 101.671 75.1186 103.432 75.0748 105.243C75.0475 106.428 74.5061 107.064 73.5599 107.037C72.6356 107.009 72.0996 106.328 72.1489 105.143C72.1817 104.296 72.2692 103.448 72.3403 102.562C72.1379 102.562 71.941 102.551 71.7496 102.562C67.7353 102.884 64.4538 101.394 61.774 98.4202C58.7331 95.0533 57.2455 91.0607 57.1033 86.5253C57.0815 85.7445 57.5135 85.1354 58.3065 84.9693C61.0575 84.3934 63.8194 84.2992 66.5758 84.9416C67.4673 85.1465 67.9541 85.8719 67.8009 86.6582C67.6314 87.5166 66.9587 87.9264 66.0016 87.8488C64.3663 87.7215 62.731 87.6439 61.0958 87.5609C60.795 87.5443 60.4887 87.6273 60.084 87.6772C60.2371 88.5023 60.3356 89.2775 60.527 90.0251C61.3966 93.3865 63.1576 96.1553 65.9688 98.1821C67.4181 99.2287 69.3432 99.7271 70.9128 99.572C70.8855 99.4889 70.88 99.3948 70.8363 99.3339C68.0908 96.0667 68.233 91.8249 70.3441 88.2642C71.8426 85.739 73.9591 83.8451 76.3601 82.2392C79.2259 80.3287 81.9495 78.2355 84.4216 75.8211C84.7552 75.4944 85.0669 75.14 85.3841 74.7911C86.1115 73.9882 87.0795 73.9605 87.7468 74.7911C91.8924 79.9079 93.1448 85.667 91.1212 91.9855C89.4531 97.2074 85.9474 100.812 80.9213 102.884C79.9259 103.293 79.0946 102.989 78.761 102.125C78.4438 101.294 78.8485 100.536 79.8275 100.126C85.8982 97.5785 89.3492 92.1571 89.0648 85.5286C88.95 82.793 88.0421 80.3011 86.4397 77.9531L86.4287 77.9642Z" fill="white"/>
</svg>
