<svg width="184" height="184" viewBox="0 0 184 184" fill="none" xmlns="http://www.w3.org/2000/svg">
<circle cx="92" cy="92" r="92" fill="#FC715E"/>
<path d="M131.66 45.5676C132.459 46.0371 132.676 46.7641 132.671 47.6779C132.651 59.6227 132.661 71.5674 132.656 83.5071C132.656 85.1176 132.183 85.5972 130.614 85.5972C117.477 85.5972 104.345 85.5972 91.2084 85.5871C90.5375 85.5871 90.1379 85.7386 89.763 86.3949C88.4459 88.7071 85.5748 89.4694 83.2612 88.1972C81.2534 87.0916 79.2605 85.9658 77.2576 84.8501C77.011 84.7137 76.7495 84.5926 76.3746 84.4007C76.3746 84.8803 76.3746 85.2287 76.3746 85.577C76.3697 88.4799 76.3647 91.3828 76.3549 94.2857C76.3549 95.6337 75.8566 96.1688 74.574 96.1688C69.6015 96.1789 64.6289 96.1789 59.6564 96.1688C58.359 96.1688 57.8854 95.6539 57.8706 94.2958C57.8657 93.7051 57.8706 93.1145 57.8706 92.6046C57.0468 92.5591 56.3117 92.6147 55.6162 92.4632C53.9488 92.0997 52.5429 90.6003 52.5281 88.8788C52.4985 84.9662 52.1433 81.0334 52.8487 77.146C53.342 74.4047 54.4174 71.8956 55.9664 69.6036C57.328 67.5892 59.2913 66.529 61.6049 66.423C65.0482 66.2715 68.5063 66.3018 71.9546 66.3574C74.0857 66.3927 75.8024 67.4579 77.228 69.0381C77.4994 69.341 77.746 69.6641 78.1456 70.1589C78.1456 69.654 78.1456 69.341 78.1456 69.028C78.1456 61.9046 78.1555 54.7811 78.1308 47.6577C78.1308 46.7338 78.3528 46.0169 79.1717 45.5676H131.66ZM97.656 67.0187C97.4636 67.3317 97.3156 67.5842 97.1528 67.8315C94.7208 71.527 92.3036 75.2377 89.837 78.913C89.3289 79.6703 88.9885 80.2862 89.7778 81.0435C89.9801 81.2353 90.1182 81.5483 90.1774 81.831C90.3106 82.4924 90.6806 82.6186 91.2923 82.6186C103.812 82.6035 116.333 82.6035 128.853 82.6035C129.134 82.6035 129.41 82.5732 129.667 82.558V48.5917H81.1153C81.1005 48.9299 81.0758 49.2177 81.0758 49.5105C81.0758 57.7396 81.066 65.9737 81.0906 74.2028C81.0906 74.6622 81.2238 75.3488 81.5248 75.5406C83.1823 76.5806 84.9138 77.4944 86.6502 78.4687C89.541 74.0816 92.3825 69.7752 95.2683 65.3881C96.0872 65.9484 96.8519 66.4735 97.651 67.0187H97.656ZM73.4888 93.1548C73.4888 92.2209 73.4888 91.3576 73.4888 90.4993C73.4986 87.0562 73.5134 83.6132 73.5233 80.1751C73.5282 78.7414 74.0018 78.0649 74.9835 78.08C75.9356 78.0951 76.3894 78.7515 76.3943 80.1297C76.3943 80.2509 76.3549 80.3872 76.3993 80.4831C76.5127 80.7305 76.6015 81.0637 76.7989 81.1798C79.4282 82.6792 82.0526 84.1786 84.7165 85.6124C86.0632 86.3394 87.5925 85.2943 87.6073 83.7343C87.6171 82.7095 87.0547 82.0734 86.2359 81.614C84.1837 80.4679 82.1217 79.3472 80.0892 78.1608C79.6255 77.8932 79.1865 77.4792 78.8954 77.0299C77.7805 75.3134 76.7446 73.5414 75.6544 71.8047C74.7171 70.3104 73.4098 69.3208 71.6339 69.2855C68.5359 69.23 65.433 69.2249 62.335 69.2956C60.7022 69.3309 59.242 69.9065 58.2751 71.3958C56.9629 73.4101 55.8776 75.581 55.6902 77.9891C55.4238 81.412 55.4287 84.8551 55.3695 88.2931C55.3547 89.1312 55.9171 89.6259 56.6225 89.6158C57.3428 89.6057 57.8114 89.1261 57.8607 88.2729C57.9002 87.6166 57.8755 86.9553 57.8755 86.299C57.8755 83.7242 57.8657 81.1495 57.8854 78.5798C57.8953 77.6105 58.502 76.9996 59.3308 77.0097C60.1546 77.0198 60.717 77.6509 60.7515 78.6151C60.7614 78.8524 60.7515 79.0948 60.7515 79.332C60.7515 83.6132 60.7515 87.8893 60.7515 92.1704C60.7515 92.4884 60.7515 92.8065 60.7515 93.1498H73.4838L73.4888 93.1548Z" fill="white"/>
<path d="M80.104 131.271C80.104 129.686 79.9807 128.086 80.1287 126.515C80.4493 123.123 82.2647 120.649 84.9878 118.796C91.1887 114.566 99.8019 115.591 104.503 121.114C106.087 122.976 106.832 125.178 106.861 127.621C106.896 130.317 106.881 133.008 106.866 135.704C106.861 137.072 106.175 137.647 104.848 137.486C104.414 137.43 103.975 137.405 103.536 137.405C96.3684 137.405 89.2006 137.405 82.0329 137.405C80.3211 137.405 79.9067 136.966 79.9264 135.234C79.9412 133.917 79.9264 132.599 79.9264 131.286C79.9856 131.286 80.0448 131.286 80.104 131.286V131.271ZM83.0392 134.391H103.936C103.936 132.028 103.956 129.726 103.931 127.424C103.911 125.612 103.265 124.022 102.022 122.744C97.3057 117.898 89.4621 117.978 84.8299 122.805C83.8384 123.835 83.133 125.097 83.0738 126.531C82.9702 129.126 83.0442 131.726 83.0442 134.396L83.0392 134.391Z" fill="white"/>
<path d="M62.8477 137.395C59.1923 137.395 55.532 137.395 51.8765 137.395C50.3424 137.395 49.8737 136.91 49.8984 135.36C49.9329 132.877 50.0217 130.393 50.0168 127.909C50.0069 124.395 51.398 121.613 54.0619 119.453C59.4784 115.06 67.5786 115.111 72.931 119.574C75.4616 121.684 76.8084 124.39 76.833 127.747C76.8528 130.383 76.8478 133.018 76.833 135.648C76.8281 137.087 76.1621 137.652 74.7759 137.471C74.401 137.42 74.0212 137.395 73.6413 137.395C70.0451 137.39 66.444 137.395 62.8477 137.395ZM73.8929 134.411C73.8929 131.862 73.9571 129.408 73.8683 126.96C73.8091 125.329 73.1234 123.885 71.9789 122.729C67.6526 118.352 60.7561 117.867 55.7441 121.891C53.909 123.36 52.947 125.299 52.9174 127.702C52.8928 129.736 52.8632 131.771 52.8385 133.805C52.8385 134.002 52.8829 134.199 52.9076 134.411H73.8929Z" fill="white"/>
<path d="M110.132 131.332C110.132 129.746 110.008 128.146 110.156 126.576C110.512 122.81 112.623 120.21 115.716 118.357C121.285 115.015 128.281 115.56 133.12 119.69C135.606 121.81 136.884 124.521 136.894 127.838C136.904 130.443 136.904 133.048 136.894 135.648C136.889 137.087 136.228 137.657 134.842 137.481C134.437 137.43 134.028 137.405 133.618 137.405C126.45 137.405 119.283 137.405 112.12 137.405C110.309 137.405 109.934 136.991 109.959 135.108C109.979 133.851 109.959 132.594 109.959 131.337C110.013 131.337 110.068 131.337 110.127 131.337L110.132 131.332ZM133.964 134.421C133.964 132.028 133.978 129.726 133.959 127.424C133.944 125.607 133.298 124.021 132.045 122.744C127.743 118.362 120.842 117.862 115.815 121.886C113.985 123.35 113.003 125.278 112.993 127.692C112.988 129.095 112.934 130.504 112.914 131.907C112.904 132.735 112.914 133.558 112.914 134.416H133.968L133.964 134.421Z" fill="white"/>
<path d="M74.9882 56.2957C75.0079 60.9252 71.4265 64.6459 66.9226 64.6762C62.4335 64.7065 58.7929 61.0009 58.7682 56.3815C58.7435 51.7621 62.3299 48.0363 66.8338 47.9909C71.2982 47.9455 74.9685 51.6813 74.9882 56.2957ZM66.9621 50.9594C64.0762 50.9241 61.6886 53.2918 61.6393 56.2553C61.5899 59.1935 63.9331 61.6875 66.7943 61.7279C69.6605 61.7683 72.0579 59.3854 72.1221 56.4269C72.1813 53.4988 69.8232 50.9947 66.967 50.9594H66.9621Z" fill="white"/>
<path d="M70.7999 106.19C70.8097 110.436 67.4898 113.849 63.3509 113.844C59.2269 113.839 55.8822 110.391 55.9118 106.17C55.9414 101.97 59.2565 98.567 63.3262 98.5569C67.4651 98.5468 70.79 101.944 70.7999 106.19ZM58.8125 106.165C58.7977 108.745 60.8202 110.87 63.3262 110.901C65.8027 110.931 67.9042 108.805 67.9239 106.241C67.9436 103.671 65.9112 101.541 63.4002 101.515C60.8942 101.49 58.8273 103.585 58.8125 106.16V106.165Z" fill="white"/>
<path d="M115.987 106.074C116.061 101.788 119.445 98.4659 123.653 98.5568C127.649 98.6426 130.934 102.161 130.865 106.286C130.796 110.587 127.427 113.919 123.229 113.844C119.159 113.768 115.913 110.289 115.987 106.079V106.074ZM118.858 106.23C118.873 108.795 120.965 110.921 123.446 110.895C125.947 110.87 127.984 108.745 127.97 106.17C127.955 103.59 125.893 101.495 123.387 101.515C120.881 101.535 118.838 103.661 118.858 106.23Z" fill="white"/>
<path d="M100.832 106.236C100.813 110.487 97.4829 113.864 93.3391 113.844C89.215 113.819 85.9 110.355 85.9543 106.125C86.0085 101.874 89.3482 98.5216 93.492 98.5569C97.5618 98.5923 100.852 102.04 100.832 106.236ZM97.9515 106.226C97.9614 103.646 95.924 101.536 93.4131 101.52C90.912 101.505 88.8451 103.61 88.8352 106.185C88.8253 108.755 90.8775 110.885 93.3736 110.901C95.855 110.916 97.9417 108.785 97.9515 106.221V106.226Z" fill="white"/>
<path d="M125.113 78.9283H122.321V53.3879H125.113V78.9233V78.9283Z" fill="white"/>
<path d="M105.83 78.9081H103.072V63.8938H105.83V78.9081Z" fill="white"/>
<path d="M114.522 64.8276H117.344V78.8928H114.522V64.8276Z" fill="white"/>
<path d="M108.913 69.2905H111.676V78.8978H108.913V69.2905Z" fill="white"/>
</svg>
