<svg width="184" height="184" viewBox="0 0 184 184" fill="none" xmlns="http://www.w3.org/2000/svg">
<circle cx="92" cy="92" r="92" fill="#FFA093"/>
<path d="M142.934 120.778C142.462 122.631 142.149 124.538 141.479 126.319C139.979 130.282 137.81 133.838 134.263 136.333C131.099 138.559 127.502 139.681 123.708 140.098C113.916 141.17 104.525 139.208 95.2772 136.234C95.1839 136.207 95.107 136.135 94.9258 136.025C95.6562 135.564 96.3536 135.157 97.0181 134.695C103.064 130.502 107.798 125.093 111.461 118.75C113.301 115.568 114.822 112.198 116.739 109.071C118.6 106.021 121.137 103.591 124.685 102.497C127.87 101.519 130.836 102.19 133.68 103.723C134.164 103.987 134.63 104.284 135.416 104.751C135.284 102.992 135.284 101.508 135.048 100.062C134.4 96.0116 132.582 92.4499 130.171 89.1905C128.952 87.5416 127.557 86.0191 126.261 84.4251C125.13 83.0346 125.575 81.2592 127.239 80.9129C127.843 80.7865 128.798 81.0064 129.199 81.4351C134.01 86.5468 137.975 92.1641 139.26 99.2709C139.727 101.838 139.732 104.421 139.211 106.988C139.073 107.669 139.128 108.225 139.6 108.818C141.319 110.995 142.308 113.507 142.736 116.244C142.775 116.497 142.873 116.744 142.939 116.991V120.778H142.934ZM137.294 113.089C137.168 113.248 137.091 113.314 137.047 113.402C134.438 118.393 130.649 122.317 126.091 125.544C125.415 126.022 124.718 126.484 123.982 126.857C122.983 127.358 121.829 126.989 121.28 126.093C120.726 125.192 120.923 124.021 121.791 123.323C122.203 122.993 122.67 122.73 123.103 122.427C127.37 119.487 130.962 115.925 133.356 111.259C134.394 109.236 134.4 109.219 132.505 107.977C130.66 106.768 128.688 105.949 126.42 106.416C124.257 106.861 122.56 108.159 121.396 109.912C119.737 112.418 118.287 115.068 116.887 117.722C114.586 122.081 111.95 126.203 108.66 129.886C107.32 131.386 105.904 132.815 104.503 134.294C104.602 134.365 104.673 134.453 104.761 134.47C110.879 135.817 117.041 136.641 123.307 135.877C126.492 135.487 129.562 134.629 132.143 132.596C135.262 130.139 137.058 126.797 138.107 123.059C139.046 119.712 138.958 116.376 137.299 113.089H137.294Z" fill="white"/>
<path d="M61.0471 82.0122C61.3547 92.285 64.8529 101.206 70.4434 109.401C72.2611 112.061 73.9745 114.771 74.8806 117.915C76.6764 124.137 74.606 129.171 68.9551 132.266C68.697 132.403 68.4499 132.557 68.1039 132.761C70.5367 134.497 73.1727 135.432 75.9954 135.915C80.4547 136.674 84.8425 136.179 89.2193 135.25C89.5433 135.179 89.8674 135.113 90.1968 135.069C91.4819 134.893 92.4539 135.553 92.701 136.762C92.9262 137.861 92.2562 138.917 91.0261 139.191C89.2138 139.593 87.3961 139.977 85.5619 140.214C81.1576 140.774 76.7697 140.741 72.4533 139.505C69.4878 138.653 66.7585 137.317 64.4025 135.322C63.6172 134.657 62.9198 134.398 61.8489 134.503C56.6538 135.009 52.2166 133.206 48.4053 129.743C45.2147 126.846 43.007 123.274 41.7275 119.19C40.415 115.002 41.0081 110.852 42.4744 106.801C44.8742 100.167 48.9435 94.5825 53.6114 89.4104C55.5884 87.2228 57.7521 85.2056 59.839 83.117C60.1795 82.7762 60.5639 82.4684 61.0581 82.0287L61.0471 82.0122ZM57.818 91.0648C56.9668 92.0157 56.2474 92.7742 55.572 93.5711C51.8321 97.9958 48.4658 102.657 46.4723 108.175C45.4453 111.028 44.8522 113.957 45.5552 116.958C46.5547 121.24 48.9161 124.719 52.3209 127.456C54.4407 129.16 56.8735 130.183 59.7236 130.293C59.6303 130.089 59.5864 129.968 59.5205 129.858C56.22 124.582 54.7262 118.772 54.4352 112.605C54.3638 111.077 55.1052 110.06 56.3628 109.95C57.6917 109.841 58.5704 110.731 58.6967 112.325C58.7791 113.347 58.8065 114.381 58.9438 115.397C59.5699 119.943 60.8275 124.285 63.4854 128.094C64.8034 129.979 64.2707 129.754 66.2203 128.858C66.5498 128.704 66.8738 128.539 67.1978 128.369C70.361 126.671 71.679 124.054 71.1188 120.542C70.674 117.761 69.367 115.342 67.7799 113.078C63.134 106.444 59.6138 99.2984 57.8235 91.0648H57.818Z" fill="white"/>
<path d="M124.096 79.8737C120.829 77.9884 117.325 76.7132 113.684 75.7788C107.418 74.1739 101.059 73.8661 94.6392 74.4432C91.5858 74.718 88.5544 74.6136 85.5669 73.7782C80.1302 72.2556 76.9725 68.2378 76.8407 62.604C76.8242 62.0103 76.8407 61.4112 76.8407 60.6967C75.1053 61.3947 73.6775 62.4226 72.365 63.6153C68.6307 67.0066 66.3846 71.3323 64.7096 76.0042C64.3856 76.9056 64.122 77.8345 63.7651 78.7249C63.3148 79.8517 62.2658 80.3464 61.2005 80.0111C60.1021 79.6648 59.4157 78.659 59.7562 77.5322C61.7936 70.8156 64.6602 64.5662 70.1464 59.8777C72.2112 58.1189 74.5452 56.8217 77.1043 55.9148C77.4887 55.7774 77.9445 55.4531 78.0983 55.0959C80.7123 49.0168 85.4791 45.719 91.8055 44.5153C96.1054 43.6963 100.389 43.7348 104.497 45.5046C107.572 46.8293 110.054 48.9509 112.185 51.5122C116.831 57.0911 119.659 63.6043 121.812 70.4418C122.773 73.4978 123.514 76.6253 124.36 79.7143C124.272 79.7637 124.19 79.8132 124.102 79.8627L124.096 79.8737ZM83.0902 54.6836C87.4012 54.5023 91.3881 55.0849 95.2323 56.448C97.3465 57.1955 99.3949 58.1519 101.421 59.1192C102.586 59.6744 102.943 60.966 102.41 61.9884C101.883 63.0052 100.74 63.379 99.5926 62.8953C99.1643 62.7139 98.7634 62.4775 98.346 62.2797C93.7605 60.1196 88.9937 58.7345 83.87 58.9708C81.245 59.0918 81.1571 59.1192 81.0967 61.7025C81.0089 65.3741 82.0688 68.1608 86.3687 69.5789C89.6088 70.6507 92.9258 70.3154 96.2317 70.0901C101.185 69.7493 106.111 69.9472 110.988 70.887C113.311 71.3323 115.612 71.9259 117.924 72.4535C117.929 72.3821 117.951 72.3161 117.935 72.2666C116.139 66.5504 113.909 61.0265 110.4 56.1182C108.418 53.3425 106.133 50.7922 102.893 49.4785C98.2362 47.5878 93.5518 47.9286 88.9608 49.7973C86.5829 50.7647 84.6334 52.3037 83.0902 54.6781V54.6836Z" fill="white"/>
</svg>
