<svg width="83" height="19" viewBox="0 0 83 19" fill="none" xmlns="http://www.w3.org/2000/svg">
<path d="M0 10H83" stroke="#62CFF4" stroke-width="2"/>
<g clip-path="url(#clip0_85_290)">
<path d="M48 9.84138L46.6372 11.7677L41.5435 19L41.5242 18.9707L41.5048 19L35 9.90477C35.0338 9.85113 35.0677 9.79748 35.1015 9.74384C35.1208 9.7097 35.145 9.67557 35.1643 9.64143C36.3145 7.80288 37.4019 6.10087 38.1799 4.93532C39.2286 3.35524 40.2773 1.77028 41.326 0.185318C41.3695 0.12192 41.413 0.0585216 41.4565 0C41.5338 0 41.5483 0.0633984 41.5773 0.10729C43.6602 3.26258 45.7721 6.39836 47.826 9.57315C47.8599 9.63167 47.8985 9.68532 47.9372 9.74384C47.9565 9.77798 47.9807 9.80724 48 9.84138Z" fill="#FC715E"/>
</g>
<defs>
<clipPath id="clip0_85_290">
<rect width="13" height="19" fill="white" transform="translate(35)"/>
</clipPath>
</defs>
</svg>
