<svg width="83" height="29" viewBox="0 0 83 29" fill="none" xmlns="http://www.w3.org/2000/svg">
<path d="M0 15.2632H83" stroke="#C7E22B" stroke-width="2"/>
<g clip-path="url(#clip0_143_1385)">
<path d="M48 15.021L46.6372 17.9612L41.5435 29L41.5242 28.9553L41.5048 29L35 15.1178C35.0338 15.0359 35.0677 14.9541 35.1015 14.8722C35.1208 14.8201 35.145 14.768 35.1643 14.7159C36.3145 11.9097 37.4019 9.31186 38.1799 7.53285C39.2286 5.12115 40.2773 2.702 41.326 0.282854C41.3695 0.186088 41.413 0.0893224 41.4565 0C41.5338 0 41.5483 0.0967659 41.5773 0.163758C43.6602 4.97972 45.7721 9.76591 47.826 14.6117C47.8599 14.701 47.8985 14.7829 47.9372 14.8722C47.9565 14.9243 47.9807 14.9689 48 15.021Z" fill="#FC715E"/>
</g>
<defs>
<clipPath id="clip0_143_1385">
<rect width="13" height="29" fill="white" transform="translate(35)"/>
</clipPath>
</defs>
</svg>
