<svg width="7" height="10" viewBox="0 0 7 10" fill="none" xmlns="http://www.w3.org/2000/svg">
<path d="M7 5.17967L6.26617 6.19353L3.52342 10L3.51301 9.9846L3.5026 10L0 5.21304C0.0182156 5.1848 0.0364312 5.15657 0.0546468 5.12834C0.0650558 5.11037 0.0780669 5.0924 0.0884758 5.07444C0.707807 4.10678 1.29331 3.21099 1.71227 2.59754C2.27695 1.76591 2.84164 0.931725 3.40632 0.0975359C3.42974 0.0641684 3.45316 0.0308008 3.47658 0C3.51822 0 3.52602 0.0333676 3.54164 0.0564682C4.6632 1.71715 5.80037 3.36756 6.90632 5.0385C6.92454 5.0693 6.94535 5.09754 6.96617 5.12834C6.97658 5.1463 6.98959 5.1617 7 5.17967Z" fill="#C7E22B"/>
</svg>
