<svg width="39" height="58" viewBox="0 0 39 58" fill="none" xmlns="http://www.w3.org/2000/svg">
<g clip-path="url(#clip0_85_195)">
<path d="M39 30.0421L34.9115 35.9225L19.6305 58L19.5725 57.9107L19.5145 58L0 30.2356C0.101487 30.0719 0.202974 29.9081 0.304461 29.7444C0.362454 29.6401 0.434944 29.5359 0.492937 29.4317C3.94349 23.8193 7.20558 18.6237 9.53978 15.0657C12.6859 10.2423 15.832 5.404 18.9781 0.565708C19.1086 0.372177 19.239 0.178645 19.3695 0C19.6015 0 19.645 0.193532 19.732 0.327515C25.9807 9.95944 32.3164 19.5318 38.4781 29.2233C38.5796 29.4019 38.6955 29.5657 38.8115 29.7444C38.8695 29.8486 38.942 29.9379 39 30.0421Z" fill="#C7E22B"/>
</g>
<defs>
<clipPath id="clip0_85_195">
<rect width="39" height="58" fill="white"/>
</clipPath>
</defs>
</svg>
