<svg width="23" height="30" viewBox="0 0 23 30" fill="none" xmlns="http://www.w3.org/2000/svg">
<path d="M11.5025 30C11.3625 30 11.2257 29.9572 11.1099 29.8786C9.05731 28.4141 7.19569 26.7042 5.56893 24.7867C1.92971 20.5372 0 15.8971 0 11.367C0 8.35242 1.2118 5.46112 3.36809 3.32914C5.52501 1.19716 8.45014 0 11.5 0C14.5499 0 17.475 1.19716 19.6319 3.32914C21.7882 5.46112 23 8.35179 23 11.367C23 15.8971 21.0735 20.5372 17.4311 24.7867C15.8037 26.7036 13.9427 28.4141 11.8901 29.8786C11.7762 29.956 11.6413 29.9981 11.5032 30H11.5025ZM11.5025 1.37645C8.82309 1.37959 6.25439 2.43332 4.36095 4.30611C2.46688 6.17954 1.4021 8.71855 1.40082 11.367C1.40082 16.6514 4.23557 21.0852 6.6108 23.8651C8.06827 25.5662 9.70903 27.1056 11.5032 28.4562C13.2973 27.1062 14.9381 25.5662 16.3956 23.8651C18.7708 21.0852 21.6055 16.6514 21.6055 11.367C21.6024 8.7198 20.5369 6.18143 18.6435 4.30989C16.7494 2.43772 14.182 1.38463 11.5038 1.38211V1.37645H11.5025ZM11.5025 17.9146C9.7434 17.9146 8.05554 17.2238 6.81192 15.9933C5.56766 14.7635 4.86947 13.0951 4.87011 11.3557C4.87075 9.61626 5.57084 7.94854 6.81573 6.71993C8.06063 5.49069 9.74913 4.80121 11.5083 4.80247C13.2681 4.80372 14.9546 5.49635 16.1976 6.72748C17.4406 7.95861 18.1375 9.62758 18.1356 11.3664C18.1337 13.1039 17.4343 14.7704 16.1906 15.999C14.947 17.2276 13.2617 17.9183 11.5032 17.9196V17.9139L11.5025 17.9146ZM11.5025 6.19275C10.1144 6.19275 8.783 6.73754 7.80096 7.70823C6.81892 8.67891 6.26775 9.99497 6.26775 11.367C6.26775 12.7391 6.81892 14.0551 7.80096 15.0258C8.783 15.9965 10.1144 16.5413 11.5025 16.5413C12.8906 16.5413 14.2221 15.9965 15.2041 15.0258C16.1862 14.0551 16.7373 12.7391 16.7373 11.367C16.7361 9.99497 16.1836 8.68017 15.2022 7.71012C14.2208 6.74006 12.8906 6.19464 11.5025 6.19275Z" fill="#62CFF4"/>
</svg>
