<svg width="29" height="18" viewBox="0 0 29 18" fill="none" xmlns="http://www.w3.org/2000/svg">
<path d="M26.9974 0H1.99474C1.4652 0.00246221 0.958155 0.217906 0.584864 0.597702C0.210964 0.977498 0.000607966 1.49148 0 2.02763V15.9724C0.000607966 16.5085 0.210964 17.0225 0.584864 17.4023C0.958155 17.7821 1.4652 17.9969 1.99474 18H26.9974C27.5281 17.9994 28.037 17.7858 28.4127 17.4054C28.7884 17.025 28.9994 16.5097 29 15.9724V2.02763C28.9994 1.49025 28.7878 0.975036 28.4127 0.594624C28.0376 0.214212 27.5287 0.000615553 26.9974 0ZM27.6649 2.02825V16.0025L19.3157 9.91102C19.0172 9.71343 18.6171 9.78852 18.4086 10.0815C18.2001 10.3751 18.2566 10.7826 18.5369 11.0067L26.2508 16.6624H2.73524L10.4491 11.0067C10.7294 10.7826 10.7859 10.3745 10.5768 10.0815C10.3683 9.78791 9.96822 9.71281 9.66971 9.91102L1.33935 16.0025V1.99808L14.1066 11.3268C14.2209 11.4093 14.3571 11.453 14.4976 11.453C14.638 11.453 14.7724 11.4087 14.8861 11.3268L27.6527 2.00055C27.6527 2.00055 27.6582 2.01655 27.6582 2.02763H27.6649V2.02825ZM2.73403 1.35175H26.2605L14.4957 9.94549L2.73403 1.35175Z" fill="#62CFF4"/>
</svg>
