<svg width="30" height="18" viewBox="0 0 30 18" fill="none" xmlns="http://www.w3.org/2000/svg">
<path d="M27.9283 0H2.06352C1.51572 0.00246221 0.991195 0.217906 0.605031 0.597702C0.218239 0.977498 0.000628931 1.49148 0 2.02763V15.9724C0.000628931 16.5085 0.218239 17.0225 0.605031 17.4023C0.991195 17.7821 1.51572 17.9969 2.06352 18H27.9283C28.4774 17.9994 29.0038 17.7858 29.3925 17.4054C29.7811 17.025 29.9994 16.5097 30 15.9724V2.02763C29.9994 1.49025 29.7805 0.975036 29.3925 0.594624C29.0044 0.214212 28.478 0.000615553 27.9283 0ZM28.6189 2.02825V16.0025L19.9818 9.91102C19.673 9.71343 19.2591 9.78852 19.0434 10.0815C18.8277 10.3751 18.8862 10.7826 19.1761 11.0067L27.156 16.6624H2.82956L10.8094 11.0067C11.0994 10.7826 11.1579 10.3745 10.9415 10.0815C10.7258 9.78791 10.312 9.71281 10.0031 9.91102L1.38553 16.0025V1.99808L14.5931 11.3268C14.7113 11.4093 14.8522 11.453 14.9975 11.453C15.1428 11.453 15.2818 11.4087 15.3994 11.3268L28.6063 2.00055C28.6063 2.00055 28.6119 2.01655 28.6119 2.02763H28.6189V2.02825ZM2.8283 1.35175H27.166L14.9956 9.94549L2.8283 1.35175Z" fill="#62CFF4"/>
</svg>
