<svg width="24" height="25" viewBox="0 0 24 25" fill="none" xmlns="http://www.w3.org/2000/svg">
<path d="M18.8255 25C17.5546 24.9589 16.3031 24.6652 15.1372 24.136C12.4087 22.9784 9.42488 20.8132 6.73099 17.9973C4.03771 15.1807 1.94739 12.0851 0.835674 9.24382C-0.344726 6.21145 -0.273003 3.78859 1.04051 2.42083C1.38454 2.06133 1.76079 1.7379 2.1656 1.45435L3.78789 0.322033C5.04305 -0.550145 7.027 0.402415 8.39887 2.53729C9.77073 4.67217 9.85583 6.96781 8.60067 7.83492L7.00512 8.94255C6.79238 9.08812 6.67689 9.34636 6.70729 9.60966C6.81913 10.4401 7.37225 12.204 9.83213 14.7655C12.292 17.327 13.9909 17.9055 14.7859 18.0219C15.0376 18.053 15.2849 17.9327 15.4241 17.7118L16.4878 16.0504C17.3279 14.7434 19.5087 14.832 21.562 16.2605C23.6146 17.689 24.5294 19.7549 23.6894 21.0619L22.6257 22.7233C22.3552 23.148 22.0446 23.5436 21.6975 23.9031C20.9955 24.6399 20.0193 24.9994 18.8255 24.9994V25ZM4.82484 1.40751C4.71726 1.40308 4.6115 1.43156 4.51911 1.48789L2.91019 2.60944C2.57588 2.84173 2.26407 3.10819 1.97961 3.40441C0.198064 5.25953 2.0568 11.1717 7.66522 17.0143C10.2339 19.6891 13.0633 21.7607 15.643 22.8297C17.991 23.8209 19.8528 23.8544 20.7487 22.9215C21.0326 22.6259 21.2885 22.3018 21.5115 21.955L22.5886 20.2771C22.8864 19.8119 22.3467 18.4631 20.8253 17.4029C19.3045 16.3421 17.9004 16.3453 17.6026 16.8105L16.5389 18.472C16.3304 18.7966 16.0399 19.0536 15.6989 19.215C15.3579 19.3764 14.9804 19.4353 14.6084 19.3859C13.4359 19.2169 11.4945 18.4441 8.89364 15.739C6.29275 13.0332 5.54816 11.023 5.38587 9.80207C5.33907 9.41661 5.3962 9.02483 5.5512 8.67102C5.70619 8.31721 5.95297 8.01594 6.26357 7.80011L7.85912 6.69248C8.30587 6.38234 8.30587 4.92027 7.28715 3.33352C6.44957 2.01829 5.42052 1.40878 4.82484 1.40878V1.40751ZM22.7746 12.5224C22.9496 12.4977 23.1077 12.4015 23.2147 12.2547C23.321 12.1085 23.3678 11.9237 23.3435 11.7414C22.5862 5.96524 17.6476 0.82015 12.1005 0.0448095C11.7334 -0.00709082 11.3955 0.260639 11.345 0.642929C11.2952 1.02522 11.5523 1.37713 11.9194 1.42966C16.903 2.14108 21.3413 6.76274 22.0245 11.9521C22.0695 12.2958 22.3509 12.5522 22.684 12.5528C22.715 12.5452 22.7454 12.5351 22.7746 12.5224ZM19.4662 12.9933C19.6418 12.9693 19.8005 12.8737 19.9081 12.7268C20.0157 12.58 20.0625 12.3952 20.0382 12.2129C19.4826 7.97353 15.7274 4.05506 11.6483 3.47403C11.2812 3.42213 10.9432 3.68986 10.8928 4.07215C10.8429 4.45444 11.1001 4.80635 11.4672 4.85888C14.9829 5.35763 18.2347 8.73558 18.7161 12.4072C18.7611 12.7509 19.0425 13.0072 19.3756 13.0079C19.406 13.006 19.4364 13.0015 19.4662 12.9939V12.9933Z" fill="#62CFF4"/>
</svg>
