<svg width="25" height="25" viewBox="0 0 25 25" fill="none" xmlns="http://www.w3.org/2000/svg">
<path d="M19.6099 25C18.286 24.9589 16.9823 24.6652 15.768 24.136C12.9257 22.9784 9.81758 20.8132 7.01145 17.9973C4.20595 15.1807 2.02853 12.0851 0.870494 9.24382C-0.35909 6.21145 -0.284378 3.78859 1.08387 2.42083C1.44223 2.06133 1.83415 1.7379 2.25583 1.45435L3.94572 0.322033C5.25318 -0.550145 7.31979 0.402415 8.74882 2.53729C10.1778 4.67217 10.2665 6.96781 8.95903 7.83492L7.297 8.94255C7.0754 9.08812 6.9551 9.34636 6.98676 9.60966C7.10326 10.4401 7.67943 12.204 10.2418 14.7655C12.8042 17.327 14.5738 17.9055 15.402 18.0219C15.6641 18.053 15.9218 17.9327 16.0668 17.7118L17.1748 16.0504C18.0498 14.7434 20.3216 14.832 22.4604 16.2605C24.5985 17.689 25.5514 19.7549 24.6764 21.0619L23.5684 22.7233C23.2867 23.148 22.9631 23.5436 22.6016 23.9031C21.8703 24.6399 20.8534 24.9994 19.6099 24.9994V25ZM5.02588 1.40751C4.91381 1.40308 4.80364 1.43156 4.7074 1.48789L3.03145 2.60944C2.68321 2.84173 2.3584 3.10819 2.06209 3.40441C0.206316 5.25953 2.1425 11.1717 7.98461 17.0143C10.6603 19.6891 13.6076 21.7607 16.2947 22.8297C18.7406 23.8209 20.68 23.8544 21.6132 22.9215C21.9089 22.6259 22.1755 22.3018 22.4078 21.955L23.5298 20.2771C23.84 19.8119 23.2778 18.4631 21.693 17.4029C20.1089 16.3421 18.6463 16.3453 18.336 16.8105L17.228 18.472C17.0108 18.7966 16.7082 19.0536 16.353 19.215C15.9978 19.3764 15.6046 19.4353 15.2171 19.3859C13.9958 19.2169 11.9735 18.4441 9.26421 15.739C6.55495 13.0332 5.77933 11.023 5.61028 9.80207C5.56153 9.41661 5.62104 9.02483 5.7825 8.67102C5.94395 8.31721 6.20101 8.01594 6.52455 7.80011L8.18658 6.69248C8.65195 6.38234 8.65195 4.92027 7.59078 3.33352C6.7183 2.01829 5.64637 1.40878 5.02588 1.40878V1.40751ZM23.7235 12.5224C23.9059 12.4977 24.0705 12.4015 24.1819 12.2547C24.2927 12.1085 24.3415 11.9237 24.3162 11.7414C23.5273 5.96524 18.3829 0.82015 12.6047 0.0448095C12.2223 -0.00709082 11.8703 0.260639 11.8177 0.642929C11.7658 1.02522 12.0336 1.37713 12.416 1.42966C17.6073 2.14108 22.2306 6.76274 22.9422 11.9521C22.9891 12.2958 23.2822 12.5522 23.6292 12.5528C23.6615 12.5452 23.6931 12.5351 23.7235 12.5224ZM20.2773 12.9933C20.4603 12.9693 20.6255 12.8737 20.7376 12.7268C20.8496 12.58 20.8984 12.3952 20.8731 12.2129C20.2944 7.97353 16.3828 4.05506 12.1337 3.47403C11.7512 3.42213 11.3992 3.68986 11.3467 4.07215C11.2947 4.45444 11.5626 4.80635 11.945 4.85888C15.6071 5.35763 18.9945 8.73558 19.496 12.4072C19.5428 12.7509 19.836 13.0072 20.1829 13.0079C20.2146 13.006 20.2463 13.0015 20.2773 12.9939V12.9933Z" fill="#62CFF4"/>
</svg>
